Verloren Maya Koninkrijk en Lang voor Columbus kwam in de jungles van Mexico en Midden-Amerika de Maya-cultuur tot bloei, een der hoogst ontwikkelde beschavingen van die tijd. Deze vooruit strevende gemeenschap van priesters, astronomen,...

Over a thousand years ago, one earth's most advanced societies vanished, leaving behind temples, the ruins of cities, and works of art in the now-overgrown jungles of present-day Mexico and Central America. We call them the Maya, and the abrupt end of their civilization is still a mystery...

------------------------ Dutch Friends ------------------------
---------------------------------------------------------------
- Bezoek ook eens mijn vrienden op:  http://www.Film-Test.nl --
----- voor mijn Nederlandse Sync. ondertitels ---- en meer ----
------- http://www.Film-Test.nl ---- voor Films en meer -------
---------------------------------------------------------------

General:

Complete name                    : Lost Kingdom of the Maya's\Lost Kingdom of the Maya's.avi
Format                           : AVI
Format/Info                      : Audio Video Interleave
File size                        : 503 MiB
Duration                         : 51mn 43s
Overall bit rate                 : 1 359 Kbps

Video:

Format                           : MPEG-4 Visual
Format profile                   : Simple@L3
Format settings, BVOP            : No
Format settings, QPel            : No
Format settings, GMC             : No warppoints
Format settings, Matrix          : Default (H.263)
Codec ID                         : XVID
Codec ID/Hint                    : XviD
Duration                         : 51mn 43s
Bit rate                         : 1 156 Kbps
Width                            : 640 pixels
Height                           : 480 pixels
Display aspect ratio             : 4:3
Frame rate                       : 25.000 fps
Color space                      : YUV
Chroma subsampling               : 4:2:0
Bit depth                        : 8 bits
Scan type                        : Progressive
Compression mode                 : Lossy
Bits/(Pixel*Frame)               : 0.151
Stream size                      : 428 MiB (85%)
Writing library                  : XviD 1.1.2 (UTC 2006-11-01)

Audio:

Format                           : AC-3
Format/Info                      : Audio Coding 3
Mode extension                   : CM (complete main)
Codec ID                         : 2000
Duration                         : 51mn 43s
Bit rate mode                    : Constant
Bit rate                         : 192 Kbps
Channel(s)                       : 2 channels
Channel positions                : Front: L R
Sampling rate                    : 48.0 KHz
Bit depth                        : 16 bits
Compression mode                 : Lossy
Stream size                      : 71.0 MiB (14%)
Alignment                        : Aligned on interleaves
Interleave, duration             : 32 ms (0.80 video frame)
Interleave, preload duration     : 576 ms

